<svg width="35" height="35" viewBox="0 0 35 35" fill="none" xmlns="http://www.w3.org/2000/svg">
<path d="M10.9375 32.0833C9.52782 32.0833 8.32469 31.5851 7.32817 30.5885C6.33164 29.592 5.83337 28.3889 5.83337 26.9792V8.02083C5.83337 6.61111 6.33164 5.40798 7.32817 4.41146C8.32469 3.41493 9.52782 2.91666 10.9375 2.91666H29.1667V24.7917C28.5591 24.7917 28.0428 25.0046 27.618 25.4304C27.1931 25.8562 26.9802 26.3725 26.9792 26.9792C26.9782 27.5858 27.1912 28.1026 27.618 28.5294C28.0448 28.9562 28.561 29.1686 29.1667 29.1667V32.0833H10.9375ZM8.75004 22.349C9.09032 22.1788 9.44275 22.0573 9.80733 21.9844C10.1719 21.9115 10.5487 21.875 10.9375 21.875H11.6667V5.83333H10.9375C10.3299 5.83333 9.81365 6.04625 9.38879 6.47208C8.96393 6.89791 8.75101 7.41416 8.75004 8.02083V22.349ZM14.5834 21.875H26.25V5.83333H14.5834V21.875ZM10.9375 29.1667H24.5365C24.3907 28.8264 24.2755 28.4803 24.1909 28.1283C24.1063 27.7764 24.0635 27.3933 24.0625 26.9792C24.0625 26.5903 24.099 26.2135 24.1719 25.849C24.2448 25.4844 24.3664 25.1319 24.5365 24.7917H10.9375C10.3056 24.7917 9.78303 25.0046 9.36983 25.4304C8.95664 25.8562 8.75004 26.3725 8.75004 26.9792C8.75004 27.6111 8.95664 28.1337 9.36983 28.5469C9.78303 28.9601 10.3056 29.1667 10.9375 29.1667Z" fill="#EC0303"/>
</svg>
