
<svg width="115" height="115" viewBox="0 0 115 115" fill="none" xmlns="http://www.w3.org/2000/svg">
<circle cx="57.5" cy="57.5" r="57.5" fill="#E70F2B"/>
<circle cx="57" cy="58" r="50" fill="white" fill-opacity="0.08"/>
<circle cx="57" cy="58" r="40" fill="white" fill-opacity="0.1"/>
<circle cx="57.0703" cy="58.005" r="20" fill="white" fill-opacity="0.3"/>
<path d="M51.5 48C50.3065 48 49.1619 48.4741 48.318 49.318C47.4741 50.1619 47 51.3065 47 52.5V63C47 64.1935 47.4741 65.3381 48.318 66.182C49.1619 67.0259 50.3065 67.5 51.5 67.5H62C63.1935 67.5 64.3381 67.0259 65.182 66.182C66.0259 65.3381 66.5 64.1935 66.5 63V52.5C66.5 51.3065 66.0259 50.1619 65.182 49.318C64.3381 48.4741 63.1935 48 62 48H51.5Z" fill="#E9E9E9"/>
</svg>
