<svg width="40" height="20" viewBox="0 0 40 20" fill="none" xmlns="http://www.w3.org/2000/svg">
<path d="M15.6127 5.94043L13.8848 16.0806H16.6483L18.3777 5.94043H15.6127Z" fill="white"/>
<path d="M11.5697 5.95233L8.863 12.8676L8.57442 11.8235C8.04061 10.5654 6.52521 8.75853 4.74609 7.61984L7.22107 16.0761L10.1453 16.0712L14.4974 5.9502L11.5697 5.95233Z" fill="white"/>
<path d="M7.52427 6.67732C7.36363 6.05965 6.89806 5.87555 6.32019 5.85352H2.03554L2 6.05538C5.33432 6.86426 7.54062 8.81325 8.45612 11.1567L7.52427 6.67732Z" fill="white"/>
<path d="M23.9799 7.88476C24.8841 7.87054 25.5394 8.06814 26.0483 8.27285L26.2978 8.39013L26.6717 6.19236C26.1244 5.98695 25.2665 5.7666 24.196 5.7666C21.4652 5.7666 19.5403 7.14198 19.5254 9.11301C19.5076 10.5694 20.8965 11.3826 21.9457 11.868C23.0225 12.3656 23.3836 12.6819 23.3786 13.1261C23.3701 13.8049 22.52 14.1163 21.726 14.1163C20.6193 14.1163 20.0315 13.9634 19.1238 13.5853L18.7677 13.4232L18.3789 15.6928C19.0257 15.9764 20.2191 16.2202 21.4581 16.233C24.3631 16.233 26.2509 14.874 26.2708 12.7679C26.2829 11.6157 25.5458 10.7365 23.9487 10.015C22.982 9.54446 22.3906 9.23171 22.3963 8.7569C22.3963 8.3354 22.8981 7.88476 23.9799 7.88476Z" fill="white"/>
<path d="M33.7646 5.95215H31.6294C30.9662 5.95215 30.4729 6.13269 30.1815 6.79373L26.0781 16.0866H28.9803C28.9803 16.0866 29.4537 14.837 29.561 14.5634C29.8787 14.5634 32.6984 14.5677 33.1 14.5677C33.1825 14.9216 33.437 16.0866 33.437 16.0866H36.0008L33.7646 5.95215ZM30.3564 12.4879C30.5838 11.9057 31.4574 9.65395 31.4574 9.65395C31.4425 9.68167 31.6827 9.06755 31.8256 8.68585L32.0118 9.56013C32.0118 9.56013 32.5414 11.9811 32.6522 12.4879H30.3564Z" fill="white"/>
</svg>
