<svg width="35" height="35" viewBox="0 0 35 35" fill="none" xmlns="http://www.w3.org/2000/svg">
<path d="M4.37504 29.1667C3.57296 29.1667 2.88657 28.8813 2.31587 28.3106C1.74518 27.7399 1.45935 27.0531 1.45837 26.25V10.2083H4.37504V26.25H29.1667V29.1667H4.37504ZM10.2084 23.3333C9.40629 23.3333 8.7199 23.048 8.14921 22.4773C7.57851 21.9066 7.29268 21.2197 7.29171 20.4167V8.75C7.29171 7.94792 7.57754 7.26153 8.14921 6.69084C8.72087 6.12014 9.40726 5.83431 10.2084 5.83334H30.625C31.4271 5.83334 32.114 6.11917 32.6857 6.69084C33.2573 7.2625 33.5427 7.94889 33.5417 8.75V20.4167C33.5417 21.2188 33.2564 21.9056 32.6857 22.4773C32.115 23.049 31.4281 23.3343 30.625 23.3333H10.2084ZM13.125 20.4167C13.125 19.6146 12.8397 18.9282 12.269 18.3575C11.6983 17.7868 11.0114 17.501 10.2084 17.5V20.4167H13.125ZM27.7084 20.4167H30.625V17.5C29.823 17.5 29.1366 17.7858 28.5659 18.3575C27.9952 18.9292 27.7093 19.6156 27.7084 20.4167ZM20.4167 18.9583C21.632 18.9583 22.665 18.533 23.5157 17.6823C24.3664 16.8316 24.7917 15.7986 24.7917 14.5833C24.7917 13.3681 24.3664 12.3351 23.5157 11.4844C22.665 10.6337 21.632 10.2083 20.4167 10.2083C19.2014 10.2083 18.1684 10.6337 17.3177 11.4844C16.4671 12.3351 16.0417 13.3681 16.0417 14.5833C16.0417 15.7986 16.4671 16.8316 17.3177 17.6823C18.1684 18.533 19.2014 18.9583 20.4167 18.9583ZM10.2084 11.6667C11.0105 11.6667 11.6973 11.3813 12.269 10.8106C12.8407 10.2399 13.126 9.55306 13.125 8.75H10.2084V11.6667ZM30.625 11.6667V8.75H27.7084C27.7084 9.55209 27.9942 10.239 28.5659 10.8106C29.1375 11.3823 29.8239 11.6676 30.625 11.6667Z" fill="#EC0303"/>
</svg>
