<svg width="35" height="35" viewBox="0 0 35 35" fill="none" xmlns="http://www.w3.org/2000/svg">
<path d="M26.25 21.875V18.9583H29.1667C29.5799 18.9583 29.9265 19.0983 30.2065 19.3783C30.4865 19.6583 30.626 20.0044 30.625 20.4167C30.624 20.8289 30.484 21.1755 30.205 21.4565C29.926 21.7374 29.5799 21.8769 29.1667 21.875H26.25ZM26.25 27.7083V24.7917H29.1667C29.5799 24.7917 29.9265 24.9317 30.2065 25.2117C30.4865 25.4917 30.626 25.8378 30.625 26.25C30.624 26.6622 30.484 27.0088 30.205 27.2898C29.926 27.5708 29.5799 27.7103 29.1667 27.7083H26.25ZM20.4167 29.1667C19.6146 29.1667 18.9282 28.8813 18.3575 28.3106C17.7868 27.7399 17.501 27.0531 17.5 26.25H14.5833V20.4167H17.5C17.5 19.6146 17.7858 18.9282 18.3575 18.3575C18.9292 17.7868 19.6156 17.501 20.4167 17.5H24.7917V29.1667H20.4167ZM10.2083 24.7917C8.60417 24.7917 7.2309 24.2205 6.08854 23.0781C4.94618 21.9358 4.375 20.5625 4.375 18.9583C4.375 17.3542 4.94618 15.9809 6.08854 14.8385C7.2309 13.6962 8.60417 13.125 10.2083 13.125H12.3958C13.0035 13.125 13.5202 12.9126 13.946 12.4877C14.3719 12.0628 14.5843 11.5461 14.5833 10.9375C14.5824 10.3289 14.3699 9.81264 13.946 9.38875C13.5222 8.96486 13.0054 8.75195 12.3958 8.75H7.29167C6.87847 8.75 6.53236 8.61 6.25333 8.33C5.97431 8.05 5.83431 7.70389 5.83333 7.29167C5.83236 6.87945 5.97236 6.53334 6.25333 6.25334C6.53431 5.97334 6.88042 5.83334 7.29167 5.83334H12.3958C13.8056 5.83334 15.0087 6.3316 16.0052 7.32813C17.0017 8.32466 17.5 9.52778 17.5 10.9375C17.5 12.3472 17.0017 13.5503 16.0052 14.5469C15.0087 15.5434 13.8056 16.0417 12.3958 16.0417H10.2083C9.40625 16.0417 8.71986 16.3275 8.14917 16.8992C7.57847 17.4708 7.29264 18.1572 7.29167 18.9583C7.29069 19.7594 7.57653 20.4463 8.14917 21.019C8.72181 21.5916 9.40819 21.8769 10.2083 21.875H13.125V24.7917H10.2083Z" fill="#EC0303"/>
</svg>
