<svg width="12" height="21" viewBox="0 0 12 21" fill="none" xmlns="http://www.w3.org/2000/svg">
<path d="M7.26922 0.197329C7.68153 -0.121599 8.27432 -0.0458981 8.59324 0.366415C13.1419 6.24692 13.1289 13.9398 8.59446 19.8278C8.27641 20.2408 7.68378 20.3178 7.27079 19.9997C6.85781 19.6817 6.78084 19.089 7.09889 18.676C11.1125 13.4644 11.1207 6.71922 7.10013 1.52136C6.7812 1.10905 6.85691 0.516259 7.26922 0.197329Z" fill="white"/>
<path d="M3.50225 2.632C3.91429 2.31272 4.50714 2.38792 4.82642 2.79996C8.23847 7.20335 8.2246 12.983 4.8281 17.3927C4.51002 17.8056 3.91739 17.8825 3.50442 17.5645C3.09146 17.2464 3.01454 16.6538 3.33262 16.2408C6.20889 12.5065 6.21629 7.6755 3.33429 3.95617C3.01501 3.54413 3.09021 2.95128 3.50225 2.632Z" fill="white"/>
<path d="M1.69184 6.15186C1.37391 5.73877 0.78131 5.66163 0.368224 5.97955C-0.0448621 6.29748 -0.122005 6.89008 0.19592 7.30317C1.49894 8.99621 1.50682 11.1706 0.196354 12.8706C-0.121881 13.2835 -0.0451847 13.8761 0.367662 14.1944C0.780508 14.5126 1.37317 14.4359 1.6914 14.0231C3.52796 11.6405 3.51458 8.52018 1.69184 6.15186Z" fill="white"/>
</svg>
